<?xml version="1.0" encoding="utf-8"?>
<!-- Generator: Adobe Illustrator 17.1.0, SVG Export Plug-In . SVG Version: 6.00 Build 0)  -->
<!DOCTYPE svg PUBLIC "-//W3C//DTD SVG 1.1//EN" "http://www.w3.org/Graphics/SVG/1.1/DTD/svg11.dtd">
<svg version="1.1" id="Layer_1" xmlns="http://www.w3.org/2000/svg" xmlns:xlink="http://www.w3.org/1999/xlink" x="0px" y="0px"
	 viewBox="0 0 1800 2360" enable-background="new 0 0 1800 2360" xml:space="preserve">
<rect x="-7.4" y="1335.5" fill="#E4E4E4" width="1807.4" height="52.9"/>
<rect y="1387" fill="#7D66AD" width="1800" height="970.5"/>
<g opacity="0.1" enable-background="new    ">
	<g>
		<defs>
			<rect id="SVGID_1_" x="-3.8" y="1385.8" width="1806.7" height="1241.3"/>
		</defs>
		<clipPath id="SVGID_2_">
			<use xlink:href="#SVGID_1_"  overflow="visible"/>
		</clipPath>
		<polygon clip-path="url(#SVGID_2_)" fill="#7D6BAC" points="-2102.4,1538.2 -2124.7,1538.2 -2124.7,2769.7 -2102.4,2779.2 		"/>
	</g>
	<g>
		<defs>
			<rect id="SVGID_3_" x="-3.8" y="1385.8" width="1806.7" height="1241.3"/>
		</defs>
		<clipPath id="SVGID_4_">
			<use xlink:href="#SVGID_3_"  overflow="visible"/>
		</clipPath>
		<polygon clip-path="url(#SVGID_4_)" fill="#7D6BAC" points="-2102.4,3337.1 -2102.4,2779.2 -2124.7,2769.7 -2124.7,3346.1 
			-872.2,3346.1 -888.3,3337.1 		"/>
	</g>
	<g>
		<defs>
			<rect id="SVGID_5_" x="-3.8" y="1385.8" width="1806.7" height="1241.3"/>
		</defs>
		<clipPath id="SVGID_6_">
			<use xlink:href="#SVGID_5_"  overflow="visible"/>
		</clipPath>
		<polygon clip-path="url(#SVGID_6_)" fill="#7D6BAC" points="4270.6,3337.1 4267,3346.1 6202.6,3346.1 6199.7,3337.1 		"/>
	</g>
	<g>
		<defs>
			<rect id="SVGID_7_" x="-3.8" y="1385.8" width="1806.7" height="1241.3"/>
		</defs>
		<clipPath id="SVGID_8_">
			<use xlink:href="#SVGID_7_"  overflow="visible"/>
		</clipPath>
		<polygon clip-path="url(#SVGID_8_)" fill="#7D6BAC" points="2748.1,3337.1 2741.1,3346.1 4267,3346.1 4270.6,3337.1 		"/>
	</g>
	<g>
		<defs>
			<rect id="SVGID_9_" x="-3.8" y="1385.8" width="1806.7" height="1241.3"/>
		</defs>
		<clipPath id="SVGID_10_">
			<use xlink:href="#SVGID_9_"  overflow="visible"/>
		</clipPath>
		<polygon clip-path="url(#SVGID_10_)" fill="#7D6BAC" points="-888.3,3337.1 -872.2,3346.1 -636.7,3346.1 -630.7,3337.1 		"/>
	</g>
	<g>
		<defs>
			<rect id="SVGID_11_" x="-3.8" y="1385.8" width="1806.7" height="1241.3"/>
		</defs>
		<clipPath id="SVGID_12_">
			<use xlink:href="#SVGID_11_"  overflow="visible"/>
		</clipPath>
		<polygon clip-path="url(#SVGID_12_)" fill="#7D6BAC" points="2658.6,3337.1 2664.3,3346.1 2741.1,3346.1 2748.1,3337.1 		"/>
	</g>
	<g>
		<defs>
			<rect id="SVGID_13_" x="-3.8" y="1385.8" width="1806.7" height="1241.3"/>
		</defs>
		<clipPath id="SVGID_14_">
			<use xlink:href="#SVGID_13_"  overflow="visible"/>
		</clipPath>
		<polygon clip-path="url(#SVGID_14_)" fill="#7D6BAC" points="6202.6,3346.1 7757,3346.1 7757,3337.1 6199.7,3337.1 		"/>
	</g>
	<g>
		<defs>
			<rect id="SVGID_15_" x="-3.8" y="1385.8" width="1806.7" height="1241.3"/>
		</defs>
		<clipPath id="SVGID_16_">
			<use xlink:href="#SVGID_15_"  overflow="visible"/>
		</clipPath>
		<polygon clip-path="url(#SVGID_16_)" fill="#A89BC8" points="-1022.6,1391.1 -1353.6,1391.1 -1392.2,2959 -888.3,3190.1 
			-630.7,3190.1 250.1,2112.8 		"/>
	</g>
	<g>
		<defs>
			<rect id="SVGID_17_" x="-3.8" y="1385.8" width="1806.7" height="1241.3"/>
		</defs>
		<clipPath id="SVGID_18_">
			<use xlink:href="#SVGID_17_"  overflow="visible"/>
		</clipPath>
		<polyline clip-path="url(#SVGID_18_)" fill="#514678" points="1640.6,1877.5 1368.9,3197.9 -630.7,3186.8 250.1,2109.7 
			250.1,2109.7 250.1,2109.7 840.2,1388.1 1263.1,1388.1 1489.1,1678.9 		"/>
	</g>
	<g>
		<defs>
			<rect id="SVGID_19_" x="-3.8" y="1385.8" width="1806.7" height="1241.3"/>
		</defs>
		<clipPath id="SVGID_20_">
			<use xlink:href="#SVGID_19_"  overflow="visible"/>
		</clipPath>
		<polygon clip-path="url(#SVGID_20_)" fill="#7D6BAC" points="1640.6,1878.7 2672.8,3199.1 1368.9,3199.1 		"/>
	</g>
	<g>
		<defs>
			<rect id="SVGID_21_" x="-3.8" y="1385.8" width="1806.7" height="1241.3"/>
		</defs>
		<clipPath id="SVGID_22_">
			<use xlink:href="#SVGID_21_"  overflow="visible"/>
		</clipPath>
		<polygon clip-path="url(#SVGID_22_)" fill="#514678" points="4473.7,1538.2 3810.7,2229.2 3810.7,2229.2 3810.7,2229.2 
			2748.1,3337.1 4270.6,3337.1 5152.6,1538.2 		"/>
	</g>
	<g>
		<defs>
			<rect id="SVGID_23_" x="-3.8" y="1385.8" width="1806.7" height="1241.3"/>
		</defs>
		<clipPath id="SVGID_24_">
			<use xlink:href="#SVGID_23_"  overflow="visible"/>
		</clipPath>
		<polyline clip-path="url(#SVGID_24_)" fill="#A89BC8" points="1528.4,1732.5 2658.6,3190.1 2748.1,3190.1 3860.6,2029.8 		"/>
	</g>
	<g>
		<defs>
			<rect id="SVGID_25_" x="-3.8" y="1385.8" width="1806.7" height="1241.3"/>
		</defs>
		<clipPath id="SVGID_26_">
			<use xlink:href="#SVGID_25_"  overflow="visible"/>
		</clipPath>
		<polyline clip-path="url(#SVGID_26_)" fill="#312866" points="1528.4,1732.8 3860.6,2030.4 4473.7,1391.1 1263.1,1391.1 
			1640.6,1877.7 		"/>
	</g>
	<g>
		<defs>
			<rect id="SVGID_27_" x="-3.8" y="1385.8" width="1806.7" height="1241.3"/>
		</defs>
		<clipPath id="SVGID_28_">
			<use xlink:href="#SVGID_27_"  overflow="visible"/>
		</clipPath>
		<polygon clip-path="url(#SVGID_28_)" fill="#7D6BAC" points="7757,3337.1 7776.5,3337.1 7776.5,3191.9 7757,3174.7 		"/>
	</g>
	<g>
		<defs>
			<rect id="SVGID_29_" x="-3.8" y="1385.8" width="1806.7" height="1241.3"/>
		</defs>
		<clipPath id="SVGID_30_">
			<use xlink:href="#SVGID_29_"  overflow="visible"/>
		</clipPath>
		<polygon clip-path="url(#SVGID_30_)" fill="#514678" points="-1392.2,3106 -1391.8,3106 -2102.4,2779.2 -2102.4,3337.1 
			-888.3,3337.1 -1392.2,3105.8 		"/>
	</g>
	<g>
		<defs>
			<rect id="SVGID_31_" x="-3.8" y="1385.8" width="1806.7" height="1241.3"/>
		</defs>
		<clipPath id="SVGID_32_">
			<use xlink:href="#SVGID_31_"  overflow="visible"/>
		</clipPath>
		<polygon clip-path="url(#SVGID_32_)" fill="#7D6BAC" points="7757,1538.2 5778.9,1538.2 7757,3174.7 		"/>
	</g>
	<g>
		<defs>
			<rect id="SVGID_33_" x="-3.8" y="1385.8" width="1806.7" height="1241.3"/>
		</defs>
		<clipPath id="SVGID_34_">
			<use xlink:href="#SVGID_33_"  overflow="visible"/>
		</clipPath>
		<polygon clip-path="url(#SVGID_34_)" fill="#7D6BAC" points="5769.9,1529.1 5778.9,1538.2 7757,1538.2 7757,3174.7 7776.5,3191.9 
			7776.5,1529.1 		"/>
	</g>
	<g>
		<defs>
			<rect id="SVGID_35_" x="-3.8" y="1385.8" width="1806.7" height="1241.3"/>
		</defs>
		<clipPath id="SVGID_36_">
			<use xlink:href="#SVGID_35_"  overflow="visible"/>
		</clipPath>
		<polygon clip-path="url(#SVGID_36_)" fill="#312866" points="840.2,1391.1 -1022.6,1391.1 250.1,2113.3 		"/>
	</g>
	<g>
		<defs>
			<rect id="SVGID_37_" x="-3.8" y="1385.8" width="1806.7" height="1241.3"/>
		</defs>
		<clipPath id="SVGID_38_">
			<use xlink:href="#SVGID_37_"  overflow="visible"/>
		</clipPath>
		<polygon clip-path="url(#SVGID_38_)" fill="#A89BC8" points="5778.9,1538.2 5475.5,1538.2 6199.7,3337.1 7757,3337.1 7757,3174.7 
					"/>
	</g>
	<g>
		<defs>
			<rect id="SVGID_39_" x="-3.8" y="1385.8" width="1806.7" height="1241.3"/>
		</defs>
		<clipPath id="SVGID_40_">
			<use xlink:href="#SVGID_39_"  overflow="visible"/>
		</clipPath>
		<polygon clip-path="url(#SVGID_40_)" fill="#7D6BAC" points="-1022.6,1538.2 -1035.6,1529.1 -1353.4,1529.1 -1353.6,1538.2 		"/>
	</g>
	<g>
		<defs>
			<rect id="SVGID_41_" x="-3.8" y="1385.8" width="1806.7" height="1241.3"/>
		</defs>
		<clipPath id="SVGID_42_">
			<use xlink:href="#SVGID_41_"  overflow="visible"/>
		</clipPath>
		<polygon clip-path="url(#SVGID_42_)" fill="#7D6BAC" points="-1391.8,3106.3 -1353.6,1538.2 -2102.4,1538.2 -2102.4,2779.2 		"/>
	</g>
	<g>
		<defs>
			<rect id="SVGID_43_" x="-3.8" y="1385.8" width="1806.7" height="1241.3"/>
		</defs>
		<clipPath id="SVGID_44_">
			<use xlink:href="#SVGID_43_"  overflow="visible"/>
		</clipPath>
		<polygon clip-path="url(#SVGID_44_)" fill="#7D6BAC" points="-1353.4,1529.1 -2102.4,1529.1 -2102.4,1538.2 -1353.6,1538.2 		"/>
	</g>
	<g>
		<defs>
			<rect id="SVGID_45_" x="-3.8" y="1385.8" width="1806.7" height="1241.3"/>
		</defs>
		<clipPath id="SVGID_46_">
			<use xlink:href="#SVGID_45_"  overflow="visible"/>
		</clipPath>
		<polygon clip-path="url(#SVGID_46_)" fill="#7D6BAC" points="5152.6,1538.2 5156.2,1529.1 4480.8,1529.1 4473.7,1538.2 		"/>
	</g>
	<g>
		<defs>
			<rect id="SVGID_47_" x="-3.8" y="1385.8" width="1806.7" height="1241.3"/>
		</defs>
		<clipPath id="SVGID_48_">
			<use xlink:href="#SVGID_47_"  overflow="visible"/>
		</clipPath>
		<polygon clip-path="url(#SVGID_48_)" fill="#7D6BAC" points="5475.5,1538.2 5778.9,1538.2 5769.9,1529.1 5472.5,1529.1 		"/>
	</g>
	<g>
		<defs>
			<rect id="SVGID_49_" x="-3.8" y="1385.8" width="1806.7" height="1241.3"/>
		</defs>
		<clipPath id="SVGID_50_">
			<use xlink:href="#SVGID_49_"  overflow="visible"/>
		</clipPath>
		<polygon clip-path="url(#SVGID_50_)" fill="#7D6BAC" points="5156.2,1529.1 5152.6,1538.2 5475.5,1538.2 5472.5,1529.1 		"/>
	</g>
	<g>
		<defs>
			<rect id="SVGID_51_" x="-3.8" y="1385.8" width="1806.7" height="1241.3"/>
		</defs>
		<clipPath id="SVGID_52_">
			<use xlink:href="#SVGID_51_"  overflow="visible"/>
		</clipPath>
		<polygon clip-path="url(#SVGID_52_)" fill="#312866" points="4270.6,3337.1 6199.7,3337.1 5475.5,1538.2 5152.6,1538.2 		"/>
	</g>
</g>
<line fill="none" stroke="#5052A3" stroke-miterlimit="10" x1="0" y1="1389.9" x2="1791.2" y2="1389.9"/>
<rect y="0" fill="#7C6AAB" width="1802.9" height="230.7"/>
<g>
	<path fill="#FFFFFF" d="M75.5,85l-40.4,69.9c-0.3,0.5-0.6,1.1-0.8,1.7l-0.1,0.5l0.2,0.4l3.2,6.9l0.2,0.5l0.5,0.2
		c0.5,0.2,0.9,0.3,1.3,0.4l0.9,0.2l0.5-0.8l2.6-4.4l1.7-2.9L85.9,87l1.1-2L75.5,85L75.5,85z"/>
	<polygon fill="#FFFFFF" points="100.5,72 98.7,84.6 98.7,88.8 135.3,152.2 146.8,152.2 	"/>
	<path fill="#FFFFFF" d="M149.3,157.1c0-0.2-0.1-0.3-0.2-0.5l0-0.1l-0.3-0.9h-0.9l-8.5,0H50.2c-1.5,2.6-4.2,7.1-5.9,10h98h0
		c1.1,0,2.2-0.2,3.3-0.7l0.4-0.2l0.2-0.4l3.1-6.5l0.2-0.4L149.3,157.1z"/>
	<path fill="#FFFFFF" d="M75.6,85.5"/>
	<polygon fill="#FFFFFF" points="109.3,98.8 107.2,96.8 99.1,89.3 98.7,88.9 98.7,88.4 98.7,50.7 98.7,49.4 99.9,49.4 108.1,49.4 
		109.3,49.4 109.3,50.7 109.3,95.9 	"/>
	<path fill="#FFFFFF" d="M75.9,87.2"/>
	<polygon fill="#FFFFFF" points="86.8,64.5 86.8,52.1 80.5,52.1 80.5,57.3 	"/>
	<polygon fill="#FFFFFF" points="71.8,47.4 80.5,57.3 108.7,57.3 109,56.7 114.4,47.4 	"/>
	<path fill="#FFFFFF" d="M87.3,141.6c0,0-4.5,3.3-7.7,2.4c0,0,15.5,15.6,31.8,0.6c0,0,5.4-6.3,5.2-10.9l-2.1-0.6
		c0,0-3,14.7-18.5,12.9C96,146.1,92,145.2,87.3,141.6z"/>
	<path fill="#FFFFFF" d="M82.6,120.8c0,0-0.5-5.6,1.9-7.8c0,0-21.4,5.1-17.1,26.8c0,0,2.5,7.9,6.6,10.1l1.6-1.5
		c0,0-11-10.2-1.4-22.6C74.3,125.8,77.1,122.9,82.6,120.8z"/>
	<path fill="#FFFFFF" d="M103.2,126.8c0,0,5.2,2.2,6,5.4c0,0,5.5-21.3-15.6-27.7c0,0-8.2-1.5-12,1.1l0.6,2.1c0,0,14.2-4.9,20.5,9.4
		C102.7,117.1,104,121,103.2,126.8z"/>
	<path fill="#FFFFFF" d="M95.5,119.1c-1.8,2.1-5,2.2-7.1,0.4c-2.1-1.8-2.2-5-0.4-7.1c1.8-2.1,5-2.2,7.1-0.4
		C97.2,113.9,97.3,117,95.5,119.1z"/>
	<path fill="#FFFFFF" d="M82.4,139.5c-1.8,2.1-5,2.2-7.1,0.4c-2.1-1.8-2.2-5-0.4-7.1c1.8-2.1,5-2.2,7.1-0.4
		C84,134.3,84.2,137.4,82.4,139.5z"/>
	<path fill="#FFFFFF" d="M106.1,140.5c-1.8,2.1-5,2.2-7.1,0.4c-2.1-1.8-2.2-5-0.4-7.1c1.8-2.1,5-2.2,7.1-0.4
		C107.7,135.2,107.9,138.4,106.1,140.5z"/>
	<g>
		<path fill="#FFFFFF" d="M204.5,97.7c0,12.2-5.4,19.5-18.2,19.5c-4.9,0-10.4-0.7-14.7-1.6v22.7l-13.8,1.9V60.9h11l1.4,4.6
			c4.9-3.5,10.5-5.8,17.4-5.8c11.1,0,17,6.6,17,19.1V97.7z M171.5,103.9c3.6,0.8,8.3,1.5,12.2,1.5c5,0,6.9-2.4,6.9-7.4V78.6
			c0-4.5-1.7-7-6.8-7c-4.5,0-9.4,2.3-12.3,5L171.5,103.9L171.5,103.9z"/>
		<path fill="#FFFFFF" d="M224.5,60.9v38.5c0,2.9,1.2,4.4,4.4,4.4c3.4,0,9.4-2,14.4-4.6V60.9h13.8V116h-10.5l-1.4-4.6
			c-6.9,3.4-15.6,5.8-22.1,5.8c-9.2,0-12.4-6.4-12.4-16.3V60.9L224.5,60.9L224.5,60.9z"/>
	</g>
	<g>
		<path fill="#FFFFFF" d="M358.8,163.4v-40.1l7.1-1v41L358.8,163.4L358.8,163.4z"/>
		<path fill="#FFFFFF" d="M391.6,163.4h-5.8l-0.5-1.9c-2.6,1.7-5.6,2.5-8.5,2.5c-5.2,0-7.4-3.6-7.4-8.5c0-5.8,2.5-8,8.3-8h6.8v-3
			c0-3.2-0.9-4.3-5.4-4.3c-2.6,0-5.4,0.4-7.9,0.9l-0.9-5.4c2.7-0.8,6.6-1.3,9.8-1.3c8.9,0,11.6,3.2,11.6,10.3L391.6,163.4
			L391.6,163.4z M384.5,152.6h-5.3c-2.3,0-3,0.6-3,2.8c0,2,0.6,2.9,2.9,2.9c2.1,0,4-0.7,5.4-1.5L384.5,152.6L384.5,152.6z"/>
		<path fill="#FFFFFF" d="M419.8,152.5c0,6.9-2.1,11.5-13.1,11.5c-2.9,0-7.5-0.3-11-1v-39.6l7.1-1v13.7c2.1-0.9,5.3-1.7,8.4-1.7
			c6.1,0,8.6,3.7,8.6,9.8L419.8,152.5L419.8,152.5z M402.9,157.7c1.3,0.2,2.7,0.2,4.3,0.2c4.7,0,5.6-1.9,5.6-5.2v-8.8
			c0-2.3-1-3.5-3.6-3.5c-2,0-4.5,0.8-6.2,1.6L402.9,157.7L402.9,157.7z"/>
		<path fill="#FFFFFF" d="M431.9,164c-3,0-7.2-0.7-9.8-1.6l1-5.4c2.4,0.7,5.5,1.2,8.5,1.2c3.2,0,3.6-0.7,3.6-2.9
			c0-1.8-0.4-2.6-5-3.7c-6.9-1.7-7.8-3.4-7.8-8.9c0-5.7,2.5-8.2,10.6-8.2c2.6,0,6.1,0.4,8.5,1l-0.7,5.7c-2.2-0.4-5.6-0.8-7.8-0.8
			c-3.1,0-3.6,0.7-3.6,2.5c0,2.3,0.2,2.5,4,3.4c7.9,2.1,8.7,3.2,8.7,9C442.2,160.6,440.5,164,431.9,164z"/>
	</g>
	<path fill="#FFFFFF" d="M311.6,95.7c0,12.2-5.4,19.5-18.2,19.5c-4.9,0-10.4-0.7-14.7-1.6v22.7l-13.8,1.9V58.9h11l1.4,4.6
		c4.9-3.5,10.5-5.8,17.4-5.8c11.1,0,17,6.6,17,19.1V95.7z M278.7,101.9c3.6,0.8,8.3,1.5,12.2,1.5c5,0,6.9-2.4,6.9-7.4V76.5
		c0-4.5-1.7-7-6.8-7c-4.5,0-9.4,2.3-12.3,5L278.7,101.9L278.7,101.9z"/>
	<path fill="#FFFFFF" d="M365.1,95.7c0,12.2-5.4,19.5-18.2,19.5c-4.9,0-10.4-0.7-14.7-1.6v22.7l-13.8,1.9V58.9h11l1.4,4.6
		c4.9-3.5,10.5-5.8,17.4-5.8c11.1,0,17,6.6,17,19.1L365.1,95.7L365.1,95.7z M332.2,101.9c3.6,0.8,8.3,1.5,12.2,1.5
		c5,0,6.9-2.4,6.9-7.4V76.5c0-4.5-1.7-7-6.8-7c-4.5,0-9.4,2.3-12.3,5L332.2,101.9L332.2,101.9z"/>
	<path fill="#FFFFFF" d="M396.2,103.8c5.3,0,10.9-0.8,16.9-2.6l2.1,10.4c-6.2,2.4-13.7,3.5-20.3,3.5c-17.3,0-23.3-8-23.3-21.3V79.3
		c0-11.7,5.2-21.5,22.9-21.5c17.7,0,21.6,10.3,21.6,22.2v11.8h-30.7v2.8C385.5,101.2,387.9,103.8,396.2,103.8z M385.5,80.6H403v-2.7
		c0-5.2-1.6-8.8-8.4-8.8c-6.8,0-9.2,3.6-9.2,8.8V80.6z"/>
	<path fill="#FFFFFF" d="M455.6,113c-2.9,1.2-8.6,2.1-12.1,2.1c-10.1,0-15.2-4.8-15.2-14.6V69.9h-8.3v-11h8.3V45.2l13.8-1.9v15.6
		h14.1l-0.9,11h-13.2v28.9c0,2.9,1.4,4.9,5,4.9c2,0,4.5-0.5,6.9-1.1L455.6,113z"/>
	<g>
		<path fill="#FFFFFF" d="M450.3,122.3c3.7,0,6,2.7,6,6.1c0,3.4-2.3,6.1-6,6.1c-3.7,0-6.1-2.7-6.1-6.1
			C444.2,125.1,446.5,122.3,450.3,122.3z M450.3,133.2c3.1,0,4.6-2.2,4.6-4.7c0-2.6-1.6-4.7-4.6-4.7c-3.1,0-4.7,2.2-4.7,4.7
			C445.6,131,447.2,133.2,450.3,133.2z M450.5,129.2h-1.1v1.8h-0.9v-5.6h2.2c1.2,0,1.7,0.5,1.7,1.5v0.8c0,0.5-0.2,1-0.8,1.3l1.5,2
			h-1.1L450.5,129.2z M450.5,126.4h-1.2v2h1.2c0.6,0,0.8-0.2,0.8-0.6V127C451.3,126.5,451.1,126.4,450.5,126.4z"/>
	</g>
</g>
<text transform="matrix(1 0 0 1 225.5644 664.7635)" fill="#EFA92D" font-family="'Arvo'" font-size="177.3073">Quest Guide</text>
<text transform="matrix(1 0 0 1 342.3722 802.0942)" fill="#7C6AAB" font-family="'PTSans-Regular'" font-size="92.7896">For the Puppet Learning VM</text>
<rect x="367.7" y="679.1" fill="#EFA92D" width="1423.5" height="11.3"/>
</svg>
